<svg width="18" height="19" viewBox="0 0 18 19" fill="none" xmlns="http://www.w3.org/2000/svg">
    <path d="M15.5039 2.57041L15.9293 2.9958C16.2598 3.32627 16.2598 3.86064 15.9293 4.1876L14.9062 5.21416L13.2855 3.59346L14.3086 2.57041C14.6391 2.23994 15.1734 2.23994 15.5004 2.57041H15.5039ZM7.37578 9.50674L12.0938 4.78525L13.7145 6.40596L8.99297 11.1239C8.89102 11.2259 8.76445 11.2997 8.62734 11.3384L6.5707 11.9255L7.15781 9.86885C7.19648 9.73174 7.27031 9.60518 7.37227 9.50322L7.37578 9.50674ZM13.1168 1.37861L6.18047 8.31143C5.87461 8.61728 5.65312 8.99346 5.53711 9.40479L4.53164 12.9204C4.44727 13.2157 4.52812 13.5321 4.74609 13.7501C4.96406 13.9681 5.28047 14.0489 5.57578 13.9646L9.09141 12.9591C9.50625 12.8396 9.88242 12.6181 10.1848 12.3157L17.1211 5.38291C18.109 4.39502 18.109 2.79189 17.1211 1.804L16.6957 1.37861C15.7078 0.390723 14.1047 0.390723 13.1168 1.37861ZM3.09375 2.74971C1.38516 2.74971 0 4.13486 0 5.84346V15.406C0 17.1146 1.38516 18.4997 3.09375 18.4997H12.6562C14.3648 18.4997 15.75 17.1146 15.75 15.406V11.4685C15.75 11.0009 15.3738 10.6247 14.9062 10.6247C14.4387 10.6247 14.0625 11.0009 14.0625 11.4685V15.406C14.0625 16.1829 13.4332 16.8122 12.6562 16.8122H3.09375C2.3168 16.8122 1.6875 16.1829 1.6875 15.406V5.84346C1.6875 5.0665 2.3168 4.43721 3.09375 4.43721H7.03125C7.49883 4.43721 7.875 4.06104 7.875 3.59346C7.875 3.12588 7.49883 2.74971 7.03125 2.74971H3.09375Z" fill="#FA2B90"/>
    </svg>
    