<svg width="22" height="22" viewBox="0 0 22 22" fill="none" xmlns="http://www.w3.org/2000/svg">
<circle cx="11" cy="11" r="11" fill="#5830C7"/>
<path d="M5.66653 10.4538L16.8642 10.4315C16.953 10.4313 16.9976 10.4757 16.9977 10.5645L16.9997 11.5645C16.9999 11.6534 16.9556 11.6979 16.8667 11.6981L5.13582 11.7215C5.04695 11.7216 5.00243 11.6773 5.00225 11.5884L5.00027 10.5884C5.00009 10.4995 5.04444 10.455 5.13331 10.4548L5.66653 10.4538Z" fill="white"/>
<path fill-rule="evenodd" clip-rule="evenodd" d="M5.92325 10.8824L5.92325 11.1176H16.0767L16.0767 10.8824H5.92325ZM5.16594 10.1587C5.30356 10.0271 5.4725 10 5.5847 10H16.4153C16.5275 10 16.6964 10.0271 16.8341 10.1587C16.9717 10.2902 17 10.4516 17 10.5588L17 11.4412C17 11.5484 16.9717 11.7098 16.8341 11.8413C16.6964 11.9729 16.5275 12 16.4153 12H5.5847C5.4725 12 5.30356 11.9729 5.16594 11.8413C5.02834 11.7098 5 11.5484 5 11.4412L5 10.5588C5 10.4516 5.02835 10.2902 5.16594 10.1587Z" fill="white"/>
<path d="M10.5879 4.99973L11.5877 4.99775C11.6766 4.99757 11.7211 5.04192 11.7213 5.13081L11.7446 16.8639C11.7448 16.9528 11.7004 16.9974 11.6115 16.9975L10.6118 16.9995C10.5229 16.9997 10.4784 16.9553 10.4782 16.8665L10.4549 5.13333C10.4547 5.04444 10.499 4.99991 10.5879 4.99973Z" fill="white"/>
<path fill-rule="evenodd" clip-rule="evenodd" d="M10.8825 5.92309L10.8825 16.0769H11.1175L11.1175 5.92309H10.8825ZM10.1586 5.16598C10.2901 5.02837 10.4516 5 10.5589 5H11.4411C11.5484 5 11.7099 5.02837 11.8414 5.16598C11.9729 5.30358 12 5.47247 12 5.58462L12 16.4154C12 16.5275 11.9729 16.6964 11.8414 16.834C11.7099 16.9716 11.5484 17 11.4411 17H10.5589C10.4516 17 10.2901 16.9716 10.1586 16.834C10.0271 16.6964 9.99999 16.5275 9.99999 16.4154L10 5.58462C10 5.47247 10.0271 5.30358 10.1586 5.16598Z" fill="white"/>
</svg>
