<svg width="13" height="10" viewBox="0 0 13 10" fill="none" xmlns="http://www.w3.org/2000/svg">
<path d="M0.5 9.11506V6.5071C0.5 5.7571 0.640625 4.97727 0.921875 4.16761C1.21165 3.34943 1.60369 2.57812 2.09801 1.85369C2.60085 1.12074 3.16335 0.502842 3.78551 0L5.93324 1.39347C5.4304 2.15199 5.00852 2.9446 4.66761 3.77131C4.33523 4.58949 4.1733 5.4929 4.18182 6.48153V9.11506H0.5ZM6.98153 9.11506V6.5071C6.98153 5.7571 7.12216 4.97727 7.40341 4.16761C7.69318 3.34943 8.08523 2.57812 8.57955 1.85369C9.08239 1.12074 9.64489 0.502842 10.267 0L12.4148 1.39347C11.9119 2.15199 11.4901 2.9446 11.1491 3.77131C10.8168 4.58949 10.6548 5.4929 10.6634 6.48153V9.11506H6.98153Z" fill="white" fill-opacity="0.75"/>
</svg>
