<svg width="15" height="16" viewBox="0 0 15 16" fill="none" xmlns="http://www.w3.org/2000/svg">
<path fill-rule="evenodd" clip-rule="evenodd" d="M0 7.33333C0 3.69746 2.94746 0.75 6.58333 0.75C10.2192 0.75 13.1667 3.69746 13.1667 7.33333C13.1667 8.69893 12.7499 9.96854 12.038 11.0202L14.1339 13.1161C14.622 13.6043 14.622 14.3957 14.1339 14.8839C13.6457 15.372 12.8543 15.372 12.3661 14.8839L10.2702 12.788C9.21854 13.4999 7.94893 13.9167 6.58333 13.9167C2.94746 13.9167 0 10.9692 0 7.33333ZM9.47075 10.2207C10.211 9.48032 10.6667 8.46121 10.6667 7.33333C10.6667 5.07817 8.83851 3.25 6.58333 3.25C4.32817 3.25 2.5 5.07817 2.5 7.33333C2.5 9.58851 4.32817 11.4167 6.58333 11.4167C7.71121 11.4167 8.73032 10.961 9.47069 10.2207C9.47071 10.2207 9.47073 10.2207 9.47075 10.2207Z" fill="white" fill-opacity="0.75"/>
</svg>
