<svg width="18" height="19" viewBox="0 0 18 19" fill="none" xmlns="http://www.w3.org/2000/svg">
<path fill-rule="evenodd" clip-rule="evenodd" d="M8.38838 0.520756C10.5697 0.372382 12.7304 1.02328 14.4669 2.35186C16.2034 3.68043 17.3969 5.5958 17.8244 7.74016C18.2292 9.77098 17.9208 11.8756 16.9575 13.7008L17.9718 17.4685C18.0483 17.7525 17.9665 18.0558 17.7576 18.2628C17.5486 18.4699 17.2446 18.5489 16.9613 18.4698L13.2478 17.4334C11.4312 18.4065 9.33165 18.7282 7.30081 18.3379C5.15373 17.9253 3.23029 16.7451 1.88981 15.0177C0.549331 13.2903 -0.116489 11.1339 0.0167312 8.95144C0.149952 6.76895 1.0731 4.7096 2.61372 3.15811C4.15434 1.60663 6.20705 0.669131 8.38838 0.520756ZM13.4721 3.65231C12.0516 2.56545 10.284 2.03297 8.49948 2.15435C6.71501 2.27573 5.03576 3.04267 3.77543 4.31189C2.5151 5.5811 1.7599 7.26578 1.65092 9.05121C1.54193 10.8366 2.08662 12.6007 3.18322 14.0138C4.27982 15.4269 5.85332 16.3924 7.60978 16.73C9.36623 17.0675 11.1855 16.754 12.7277 15.8481C12.9193 15.7355 13.1484 15.7057 13.3624 15.7654L16.0173 16.5064L15.2907 13.8073C15.2341 13.5971 15.2635 13.3731 15.3724 13.1847C16.2676 11.6361 16.5685 9.81453 16.2187 8.0603C15.869 6.30608 14.8927 4.73917 13.4721 3.65231Z" fill="white" fill-opacity="0.3"/>
</svg>
