<svg width="38" height="38" viewBox="0 0 38 38" fill="none" xmlns="http://www.w3.org/2000/svg">
<ellipse cx="19" cy="18.0982" rx="17.1905" ry="16.2857" fill="#5830C7"/>
<path fill-rule="evenodd" clip-rule="evenodd" d="M19 0C29.4924 0 38 8.50759 38 19C38 29.4924 29.4924 38 19 38C8.50759 38 0 29.4924 0 19C0 8.50759 8.50759 0 19 0ZM19 3.22321C10.2888 3.22321 3.22321 10.2888 3.22321 19C3.22321 27.7112 10.2888 34.7768 19 34.7768C27.7112 34.7768 34.7768 27.7112 34.7768 19C34.7768 10.2888 27.7112 3.22321 19 3.22321ZM24.4291 11.6556C24.4301 11.6559 24.4309 11.6563 24.4326 11.6581L26.342 13.5674C26.3437 13.5691 26.3441 13.5699 26.3444 13.5709C26.3447 13.5718 26.3447 13.5729 26.3444 13.5738C26.3441 13.5748 26.3437 13.5756 26.3419 13.5773L20.9193 19L26.3419 24.4227C26.3427 24.4235 26.3435 24.4243 26.344 24.4253L26.3444 24.4262C26.3447 24.4272 26.3447 24.4282 26.3444 24.4292C26.3441 24.4301 26.3437 24.4309 26.3419 24.4327L24.4326 26.342C24.4309 26.3437 24.4301 26.3441 24.4291 26.3445C24.4282 26.3448 24.4271 26.3448 24.4262 26.3445C24.4252 26.3442 24.4244 26.3437 24.4227 26.342L19 20.9193L13.5774 26.3419C13.5756 26.3437 13.5748 26.3441 13.5738 26.3444C13.5728 26.3447 13.5718 26.3447 13.5708 26.3444C13.5699 26.3441 13.5691 26.3437 13.5674 26.3419L11.658 24.4326C11.6569 24.4317 11.6561 24.4305 11.6556 24.4291C11.6553 24.4282 11.6553 24.4271 11.6556 24.4262C11.6559 24.4252 11.6563 24.4244 11.6581 24.4227L17.0807 19L11.6581 13.5774C11.6573 13.5766 11.6565 13.5757 11.6559 13.5748L11.6556 13.5738C11.6553 13.5728 11.6553 13.5718 11.6556 13.5708C11.6559 13.5699 11.6563 13.5691 11.6581 13.5674L13.5674 11.658C13.5691 11.6563 13.5699 11.6559 13.5709 11.6556C13.5718 11.6553 13.5729 11.6553 13.5738 11.6556C13.5748 11.6559 13.5756 11.6563 13.5773 11.6581L19 17.0807L24.4227 11.6581C24.4244 11.6563 24.4253 11.6559 24.4262 11.6556C24.4272 11.6553 24.4282 11.6553 24.4292 11.6556H24.4291Z" fill="white"/>
</svg>
