<svg width="83" height="104" viewBox="0 0 83 104" fill="none" xmlns="http://www.w3.org/2000/svg">
<path fill-rule="evenodd" clip-rule="evenodd" d="M19.964 53.9982C18.8935 53.9995 18.1941 52.9149 18.6676 51.9875L26.4891 36.6684L62.3131 36.623C63.9339 36.6209 64.9822 38.2759 64.2422 39.6687L57.0562 53.1946C56.8093 53.6594 56.314 53.952 55.7731 53.9527L19.964 53.9982Z" fill="white"/>
<path fill-rule="evenodd" clip-rule="evenodd" d="M26.9314 36.6758L58.8163 17.0491L49.0667 36.6477L26.9314 36.6758Z" fill="white" fill-opacity="0.75"/>
<path fill-rule="evenodd" clip-rule="evenodd" d="M23.7114 17.4651C23.1296 17.0992 22.9243 16.3484 23.2386 15.7366L31.3066 0.034119L58.87 17.0731L40.6859 28.1418L23.7114 17.4651Z" fill="white"/>
<path d="M11.9915 85.5909H17.1051L19.2784 88.3651L22.1293 91.6378L26.5142 97.0455H20.7869L17.7188 93.3764L15.9034 90.7685L11.9915 85.5909ZM26.6932 81.9091C26.6932 84.7898 26.1392 87.2315 25.0312 89.2344C23.9233 91.2372 22.4233 92.7585 20.5312 93.7983C18.6477 94.8381 16.5341 95.358 14.1903 95.358C11.8381 95.358 9.72017 94.8338 7.83665 93.7855C5.95313 92.7372 4.45739 91.2159 3.34943 89.2216C2.25 87.2187 1.70028 84.7812 1.70028 81.9091C1.70028 79.0284 2.25 76.5866 3.34943 74.5838C4.45739 72.581 5.95313 71.0597 7.83665 70.0199C9.72017 68.9801 11.8381 68.4602 14.1903 68.4602C16.5341 68.4602 18.6477 68.9801 20.5312 70.0199C22.4233 71.0597 23.9233 72.581 25.0312 74.5838C26.1392 76.5866 26.6932 79.0284 26.6932 81.9091ZM20.2244 81.9091C20.2244 80.2045 19.9815 78.7642 19.4957 77.5881C19.0185 76.4119 18.3281 75.5213 17.4247 74.9162C16.5298 74.3111 15.4517 74.0085 14.1903 74.0085C12.9375 74.0085 11.8594 74.3111 10.956 74.9162C10.0526 75.5213 9.35795 76.4119 8.87216 77.5881C8.39489 78.7642 8.15625 80.2045 8.15625 81.9091C8.15625 83.6136 8.39489 85.054 8.87216 86.2301C9.35795 87.4062 10.0526 88.2969 10.956 88.902C11.8594 89.5071 12.9375 89.8097 14.1903 89.8097C15.4517 89.8097 16.5298 89.5071 17.4247 88.902C18.3281 88.2969 19.0185 87.4062 19.4957 86.2301C19.9815 85.054 20.2244 83.6136 20.2244 81.9091ZM43.092 86.5241V75.3636H49.3306V95H43.3732V91.3438H43.1687C42.734 92.5455 41.9925 93.5 40.9442 94.2074C39.9045 94.9062 38.6474 95.2557 37.1729 95.2557C35.8349 95.2557 34.6587 94.9489 33.6445 94.3352C32.6303 93.7216 31.842 92.8651 31.2795 91.7656C30.717 90.6577 30.4315 89.3622 30.4229 87.8793V75.3636H36.6744V86.652C36.6829 87.7173 36.9641 88.5568 37.5181 89.1705C38.0721 89.7841 38.8263 90.0909 39.7809 90.0909C40.4031 90.0909 40.9613 89.9545 41.4556 89.6818C41.9585 89.4006 42.3548 88.9957 42.6445 88.4673C42.9428 87.9304 43.092 87.2827 43.092 86.5241ZM53.3097 95V75.3636H59.5611V95H53.3097ZM56.4418 73.0753C55.5639 73.0753 54.8097 72.7855 54.179 72.206C53.5483 71.6179 53.233 70.9105 53.233 70.0838C53.233 69.2656 53.5483 68.5668 54.179 67.9872C54.8097 67.3991 55.5639 67.1051 56.4418 67.1051C57.3281 67.1051 58.0824 67.3991 58.7045 67.9872C59.3352 68.5668 59.6506 69.2656 59.6506 70.0838C59.6506 70.9105 59.3352 71.6179 58.7045 72.206C58.0824 72.7855 57.3281 73.0753 56.4418 73.0753ZM63.5913 95V91.4332L72.6935 80.3494V80.2216H63.9109V75.3636H80.1467V79.2756L71.7092 90.0142V90.142H80.4535V95H63.5913Z" fill="white"/>
</svg>
