<svg width="22" height="22" viewBox="0 0 22 22" fill="none" xmlns="http://www.w3.org/2000/svg">
<rect x="22" y="22" width="22" height="22" rx="11" transform="rotate(180 22 22)" fill="white" fill-opacity="0.05"/>
<rect x="21.5" y="21.5" width="21" height="21" rx="10.5" transform="rotate(180 21.5 21.5)" stroke="white" stroke-opacity="0.1"/>
<path d="M8.98151 13.9919L8.98223 14.907C8.9823 14.9864 9.06353 15.0302 9.11833 14.9816L13.8689 10.813C13.9093 10.7777 13.9419 10.7326 13.9644 10.681C13.9868 10.6294 13.9985 10.5727 13.9984 10.5152C13.9984 10.4578 13.9866 10.4011 13.9641 10.3495C13.9416 10.2979 13.9089 10.2527 13.8684 10.2175L9.11127 6.04885C9.05534 6.0003 8.97523 6.04411 8.97529 6.12343L8.97601 7.03862C8.97606 7.09663 9.00036 7.15227 9.04046 7.18779L12.8394 10.5146L9.04572 13.8427C9.00567 13.8782 8.98146 13.9339 8.98151 13.9919Z" fill="white" fill-opacity="0.5"/>
</svg>
