<svg width="22" height="23" viewBox="0 0 22 23" fill="none" xmlns="http://www.w3.org/2000/svg">
<ellipse cx="11.5" cy="12.5" rx="9" ry="10.5" fill="#242341"/>
<path fill-rule="evenodd" clip-rule="evenodd" d="M11 0C16.7984 0 21.5 4.70156 21.5 10.5C21.5 16.2984 16.7984 21 11 21C5.20156 21 0.5 16.2984 0.5 10.5C0.5 4.70156 5.20156 0 11 0ZM11 1.78125C6.18594 1.78125 2.28125 5.68594 2.28125 10.5C2.28125 15.3141 6.18594 19.2188 11 19.2188C15.8141 19.2188 19.7188 15.3141 19.7188 10.5C19.7188 5.68594 15.8141 1.78125 11 1.78125ZM14.0003 6.44123C14.0008 6.4414 14.0013 6.44166 14.0023 6.44262L15.0574 7.49775C15.0583 7.49869 15.0586 7.49916 15.0588 7.4997C15.0589 7.50023 15.0589 7.5008 15.0588 7.50134C15.0586 7.50185 15.0583 7.5023 15.0574 7.50326L12.0606 10.5L15.0574 13.4968C15.0578 13.4972 15.0582 13.4977 15.0586 13.4982L15.0588 13.4987C15.0589 13.4992 15.0589 13.4998 15.0588 13.5004C15.0586 13.5009 15.0583 13.5013 15.0574 13.5023L14.0023 14.5574C14.0013 14.5584 14.0008 14.5586 14.0003 14.5588C13.9998 14.559 13.9992 14.559 13.9987 14.5588C13.9981 14.5586 13.9977 14.5584 13.9967 14.5574L11 11.5606L8.00328 14.5574C8.0023 14.5583 8.00187 14.5586 8.00131 14.5588C8.00078 14.5589 8.00021 14.5589 7.99967 14.5588C7.99916 14.5586 7.99871 14.5583 7.99775 14.5574L6.94259 13.5023C6.94198 13.5017 6.94151 13.5011 6.94123 13.5003C6.94107 13.4998 6.94107 13.4992 6.94123 13.4987C6.9414 13.4981 6.94166 13.4977 6.94262 13.4967L9.93934 10.5L6.94262 7.50328C6.94217 7.50286 6.94177 7.50238 6.94145 7.50185L6.94123 7.50131C6.94107 7.50078 6.94107 7.50021 6.94123 7.49967C6.9414 7.49916 6.94166 7.49871 6.94262 7.49775L7.99775 6.44259C7.99869 6.44166 7.99916 6.44142 7.9997 6.44123C8.00023 6.44107 8.0008 6.44107 8.00134 6.44123C8.00185 6.4414 8.0023 6.44166 8.00326 6.44262L11 9.43934L13.9968 6.44262C13.9977 6.44166 13.9982 6.4414 13.9987 6.44123C13.9992 6.44107 13.9998 6.44107 14.0004 6.44123H14.0003Z" fill="#747474"/>
</svg>
