<svg width="35" height="35" viewBox="0 0 35 35" fill="none" xmlns="http://www.w3.org/2000/svg">
<path d="M29.2498 22.3444C29.2616 23.2658 28.7958 24.1277 28.0177 24.6245L19.0013 30.3807C18.1835 30.9028 17.1461 30.9417 16.2913 30.4822L7.29244 25.6455C6.43768 25.1861 5.89977 24.3005 5.88737 23.3322L5.75035 12.6561C5.73854 11.7347 6.20433 10.8727 6.98244 10.376L15.9989 4.6198C16.8167 4.09766 17.8541 4.05884 18.7089 4.51826L27.7077 9.35503C28.5625 9.81448 29.1004 10.7 29.1128 11.6684L29.2498 22.3444Z" fill="url(#paint0_linear_7767_6908)" stroke="white" stroke-width="2"/>
<path d="M17.4823 7.97545L17.9507 11.8662C17.9726 12.0484 17.893 12.2279 17.7432 12.334L14.1717 14.8634C14.0171 14.9729 13.814 14.9856 13.647 14.8963L9.85362 12.8685C9.5163 12.6881 9.49812 12.2113 9.82075 12.0058L16.7173 7.61347C17.0278 7.41572 17.4383 7.60996 17.4823 7.97545Z" fill="white" stroke="white"/>
<defs>
<linearGradient id="paint0_linear_7767_6908" x1="28.93" y1="23.6437" x2="6.09769" y2="11.3059" gradientUnits="userSpaceOnUse">
<stop stop-color="#5A3CB2"/>
<stop offset="0.49" stop-color="#D14BFF"/>
</linearGradient>
</defs>
</svg>
