<svg width="32" height="33" viewBox="0 0 32 33" fill="none" xmlns="http://www.w3.org/2000/svg">
	<circle cx="16" cy="16.5" r="16" fill="black" fill-opacity="0.15" />
	<circle cx="16" cy="16.5" r="15.5" stroke="white" stroke-opacity="0.3" />
	<path fill-rule="evenodd" clip-rule="evenodd"
		d="M18.4638 10.3673C18.7578 10.6971 18.7288 11.2028 18.399 11.4968L12.4874 16.7663L18.399 22.0358C18.7288 22.3298 18.7578 22.8355 18.4638 23.1653C18.1698 23.4951 17.6641 23.5241 17.3343 23.2301L11.0633 17.6402C11.0632 17.6401 11.0631 17.64 11.0629 17.6399C11.0629 17.6399 11.0629 17.6399 11.0629 17.6399C10.9443 17.5342 10.8447 17.4038 10.7747 17.2533C10.7044 17.1022 10.6666 16.9364 10.6666 16.7663C10.6666 16.5961 10.7044 16.4303 10.7747 16.2793C10.8447 16.1287 10.9443 15.9983 11.0629 15.8927C11.0629 15.8927 11.0629 15.8927 11.0629 15.8926C11.0631 15.8925 11.0632 15.8924 11.0633 15.8923L17.3343 10.3024C17.6641 10.0084 18.1698 10.0375 18.4638 10.3673Z"
		fill="white" fill-opacity="0.75" />
</svg>