<svg width="32" height="31" viewBox="0 0 32 31" fill="none" xmlns="http://www.w3.org/2000/svg">
<path d="M6.36512 27.2616L5.42935 27.5997L6.36512 27.2616L1.94584 15.028C1.94584 15.028 1.94584 15.028 1.94583 15.028C1.44909 13.6528 1.87991 12.114 3.01088 11.2032L2.39252 10.4353L3.01088 11.2032L14.1362 2.24378C14.1362 2.24377 14.1362 2.24377 14.1362 2.24376C15.3677 1.25208 17.1156 1.25208 18.3471 2.24376C18.3471 2.24377 18.3471 2.24377 18.3471 2.24378L29.4725 11.2032L30.0997 10.4243L29.4725 11.2032C30.6035 12.114 31.0343 13.6528 30.5376 15.028C30.5376 15.028 30.5376 15.028 30.5376 15.028L26.1182 27.2616L26.1182 27.2617C25.6315 28.6088 24.3626 29.5 22.9478 29.5H9.53559C8.12078 29.5 6.85176 28.6088 6.36512 27.2616Z" fill="url(#paint0_linear_7783_8496)" stroke="white" stroke-width="2"/>
<path fill-rule="evenodd" clip-rule="evenodd" d="M10.1945 23.6372C9.89393 23.6376 9.69754 23.33 9.83049 23.0671L12.0267 18.7233L22.086 18.7104C22.5411 18.7098 22.8355 19.1791 22.6277 19.574L20.6099 23.4093C20.5406 23.5411 20.4015 23.6241 20.2496 23.6243L10.1945 23.6372Z" fill="white"/>
<path fill-rule="evenodd" clip-rule="evenodd" d="M12.1509 18.7256L21.1041 13.1604L18.3664 18.7176L12.1509 18.7256Z" fill="white" fill-opacity="0.75"/>
<path fill-rule="evenodd" clip-rule="evenodd" d="M11.2467 13.2788C11.0833 13.175 11.0256 12.9621 11.1139 12.7887L13.3794 8.33615L21.1191 13.1676L16.013 16.3062L11.2467 13.2788Z" fill="white"/>
<defs>
<linearGradient id="paint0_linear_7783_8496" x1="30.213" y1="0.500001" x2="1.98056" y2="30.2247" gradientUnits="userSpaceOnUse">
<stop stop-color="#FF9432"/>
<stop offset="0.45" stop-color="#FFB342"/>
<stop offset="1" stop-color="#FF8A36"/>
</linearGradient>
</defs>
</svg>
