<svg width="38" height="38" viewBox="0 0 38 38" fill="none" xmlns="http://www.w3.org/2000/svg">
<circle cx="19" cy="19" r="18.5" fill="#7756EC"/>
<path d="M18.9993 15.168C16.9217 15.168 15.166 16.9236 15.166 19.0013C15.166 21.079 16.9217 22.8346 18.9993 22.8346C21.077 22.8346 22.8327 21.079 22.8327 19.0013C22.8327 16.9236 21.077 15.168 18.9993 15.168ZM18.9993 20.918C17.9787 20.918 17.0827 20.0219 17.0827 19.0013C17.0827 17.9807 17.9787 17.0846 18.9993 17.0846C20.02 17.0846 20.916 17.9807 20.916 19.0013C20.916 20.0219 20.02 20.918 18.9993 20.918Z" fill="white"/>
<path d="M26.666 12.293H24.1878L21.5936 9.69876C21.4139 9.51903 21.1702 9.41802 20.916 9.41797H17.0827C16.8285 9.41802 16.5848 9.51903 16.4051 9.69876L13.8109 12.293H11.3327C10.2756 12.293 9.41602 13.1526 9.41602 14.2096V24.7513C9.41602 25.8083 10.2756 26.668 11.3327 26.668H26.666C27.7231 26.668 28.5827 25.8083 28.5827 24.7513V14.2096C28.5827 13.1526 27.7231 12.293 26.666 12.293ZM11.3327 24.7513V14.2096H14.2077C14.4626 14.2096 14.706 14.109 14.8852 13.9288L17.4794 11.3346H20.5193L23.1135 13.9288C23.2932 14.1086 23.5369 14.2096 23.791 14.2096H26.666L26.6679 24.7513H11.3327Z" fill="white"/>
</svg>
