<svg width="10" height="15" viewBox="0 0 10 15" fill="none" xmlns="http://www.w3.org/2000/svg">
<path d="M0.769743 12.7912L0.744343 14.2048C0.742141 14.3273 0.874658 14.3975 0.966318 14.3243L8.9114 8.03535C8.9789 7.98215 9.03398 7.91343 9.07244 7.83444C9.1109 7.75544 9.13172 7.66825 9.13331 7.57952C9.13491 7.49079 9.11723 7.40286 9.08164 7.32244C9.04604 7.24203 8.99347 7.17125 8.92793 7.1155L1.21424 0.526544C1.12353 0.449802 0.990324 0.514936 0.988122 0.637461L0.962722 2.05107C0.961112 2.14067 0.999513 2.22739 1.06452 2.28351L7.22459 7.54203L0.879825 12.5628C0.812842 12.6164 0.771353 12.7016 0.769743 12.7912Z" fill="white"/>
</svg>
