<svg width="22" height="20" viewBox="0 0 22 20" fill="none" xmlns="http://www.w3.org/2000/svg">
<path fill-rule="evenodd" clip-rule="evenodd" d="M2.91667 2.5C2.41041 2.5 2 2.91041 2 3.41667V13C2 13.5063 2.4104 13.9167 2.91667 13.9167H3.875C4.42728 13.9167 4.875 14.3644 4.875 14.9167C4.875 15.469 4.42728 15.9167 3.875 15.9167H2.91667C1.30585 15.9167 0 14.6109 0 13V3.41667C0 1.80584 1.30584 0.5 2.91667 0.5H18.25C19.8609 0.5 21.1667 1.80585 21.1667 3.41667V13C21.1667 14.6109 19.8609 15.9167 18.25 15.9167H17.2917C16.7394 15.9167 16.2917 15.469 16.2917 14.9167C16.2917 14.3644 16.7394 13.9167 17.2917 13.9167H18.25C18.7563 13.9167 19.1667 13.5063 19.1667 13V3.41667C19.1667 2.9104 18.7563 2.5 18.25 2.5H2.91667Z" fill="white" fill-opacity="0.3"/>
<path fill-rule="evenodd" clip-rule="evenodd" d="M9.94312 13.1888C10.314 12.8798 10.8526 12.8798 11.2235 13.1888L16.9735 17.9805C17.2969 18.25 17.4169 18.6932 17.2736 19.0891C17.1302 19.485 16.7543 19.7487 16.3333 19.7487H4.8333C4.41228 19.7487 4.03636 19.485 3.89303 19.0891C3.74971 18.6932 3.86968 18.25 4.19312 17.9805L9.94312 13.1888ZM7.59535 17.7487H13.5713L10.5833 15.2587L7.59535 17.7487Z" fill="white" fill-opacity="0.3"/>
</svg>
