<svg width="19" height="20" viewBox="0 0 19 20" fill="none" xmlns="http://www.w3.org/2000/svg">
<path d="M18.6121 0.5H0.188001C0.0846006 0.5 0 0.584375 0 0.6875V2.1875C0 2.29062 0.0846006 2.375 0.188001 2.375H18.6121C18.7155 2.375 18.8001 2.29062 18.8001 2.1875V0.6875C18.8001 0.584375 18.7155 0.5 18.6121 0.5ZM18.6121 15.125H0.188001C0.0846006 15.125 0 15.2094 0 15.3125V16.8125C0 16.9156 0.0846006 17 0.188001 17H18.6121C18.7155 17 18.8001 16.9156 18.8001 16.8125V15.3125C18.8001 15.2094 18.7155 15.125 18.6121 15.125ZM18.6121 7.8125H0.188001C0.0846006 7.8125 0 7.89687 0 8V9.5C0 9.60312 0.0846006 9.6875 0.188001 9.6875H18.6121C18.7155 9.6875 18.8001 9.60312 18.8001 9.5V8C18.8001 7.89687 18.7155 7.8125 18.6121 7.8125Z" fill="white" fill-opacity="0.3"/>
</svg>
