<svg width="43" height="30" viewBox="0 0 43 30" fill="none" xmlns="http://www.w3.org/2000/svg">
<rect width="43" height="30" rx="15" fill="white" fill-opacity="0.6"/>
<rect x="0.5" y="0.5" width="42" height="29" rx="14.5" stroke="white" stroke-opacity="0.3"/>
<path d="M26.4228 8.47015L26.0621 8.4751L25.9504 8.47587C25.6767 8.47081 25.4083 8.40027 25.1675 8.27011C25.1425 8.25763 25.1182 8.24279 25.0703 8.21461C24.7613 8.04809 24.5105 7.79063 24.3514 7.47667L24.1742 7.15547C23.8924 6.64053 23.7506 6.38155 23.548 6.19357C23.3682 6.0261 23.1546 5.89931 22.9218 5.8217C22.6592 5.73409 22.3638 5.73327 21.773 5.73355L21.282 5.73299C20.6939 5.73272 20.3989 5.73265 20.1357 5.8198C19.9032 5.89668 19.6895 6.02244 19.5089 6.18869C19.3049 6.37619 19.1613 6.63452 18.8739 7.14925L18.8725 7.15204L18.6982 7.46293C18.6709 7.51257 18.6561 7.53708 18.642 7.56115C18.5006 7.79727 18.3053 7.99471 18.0712 8.13982C18.0482 8.15512 18.0235 8.16935 17.975 8.19739L17.8774 8.25272C17.6347 8.38275 17.3646 8.45257 17.0897 8.45635C17.0624 8.45719 17.035 8.45609 16.9786 8.45476L16.6203 8.44833C16.0289 8.43702 15.7332 8.43234 15.4675 8.51499C15.2329 8.58835 15.0165 8.71125 14.8329 8.87543C14.625 9.06122 14.4774 9.31785 14.1814 9.83153L14.1796 9.83358L13.936 10.2562L13.934 10.2614C13.64 10.7699 13.4932 11.0261 13.437 11.2967C13.3867 11.5375 13.3879 11.7861 13.4408 12.026C13.5011 12.2971 13.6511 12.5514 13.9525 13.059L14.139 13.3738C14.1668 13.4225 14.1828 13.4452 14.1953 13.4689C14.3468 13.7435 14.4208 14.0545 14.4095 14.3686C14.4088 14.4248 14.4096 14.4523 14.408 14.4791C14.3984 14.7559 14.3228 15.0265 14.1876 15.2681L14.1309 15.3636L13.9467 15.6693C13.6393 16.1786 13.4858 16.4336 13.4247 16.7061C13.3696 16.947 13.3665 17.1969 13.4156 17.4388C13.4721 17.7121 13.6188 17.9692 13.9138 18.4846L14.156 18.9058C14.4488 19.4174 14.5961 19.6721 14.802 19.8572C14.9839 20.0208 15.1985 20.1436 15.4315 20.2173C15.6953 20.3002 15.9889 20.2961 16.5769 20.2874L16.9295 20.2822C16.9896 20.2813 17.0196 20.28 17.049 20.2809C17.3635 20.2866 17.6702 20.3787 17.9358 20.5472L18.0372 20.6083C18.2998 20.7745 18.5125 21.0091 18.6529 21.2872L18.8217 21.5953C19.1061 22.1148 19.2495 22.3748 19.4525 22.5636C19.6323 22.7308 19.8457 22.8577 20.0788 22.9354C20.3413 23.023 20.637 23.0227 21.2275 23.0236L21.7185 23.0241C22.3074 23.024 22.6016 23.0245 22.8648 22.9373C23.0974 22.8605 23.3111 22.7347 23.4916 22.5684C23.6963 22.3805 23.84 22.1222 24.128 21.6051L24.3019 21.2935L24.3581 21.1952C24.4999 20.9599 24.6948 20.7617 24.9288 20.6166L25.0255 20.5597L25.1227 20.5037C25.3645 20.374 25.6349 20.3046 25.9103 20.3L26.0026 20.3016L26.3802 20.3088C26.9724 20.3197 27.2673 20.3248 27.5326 20.2414C27.7674 20.1686 27.984 20.0462 28.1681 19.8825C28.3752 19.6971 28.5239 19.4389 28.8198 18.9252L29.067 18.4965C29.36 17.9865 29.5073 17.731 29.5635 17.4604C29.6144 17.2188 29.6121 16.971 29.5597 16.7311C29.5003 16.4615 29.3516 16.2095 29.0544 15.7094L28.8603 15.383L28.806 15.2878C28.654 15.0132 28.5795 14.7021 28.5905 14.3878L28.5921 14.2773C28.6017 14.0005 28.6772 13.7299 28.8125 13.4883L28.8686 13.3951L28.8696 13.3935L29.0538 13.0879C29.3608 12.5778 29.5147 12.3235 29.5766 12.0506C29.6317 11.8095 29.6339 11.5591 29.5849 11.3183C29.5292 11.0465 29.383 10.7901 29.0907 10.2812L28.8438 9.85179C28.551 9.3402 28.404 9.08424 28.1981 8.89917C28.016 8.73594 27.8013 8.6136 27.5683 8.54029C27.3052 8.45697 27.0116 8.46108 26.4248 8.47004L26.4228 8.47015Z" stroke="black" stroke-opacity="0.7" stroke-width="1.5" stroke-linecap="round" stroke-linejoin="round"/>
<path d="M18.5113 16.1028C18.9649 16.8981 19.7149 17.479 20.5962 17.7178C21.4775 17.9566 22.4179 17.8336 23.2105 17.376C24.0032 16.9183 24.5831 16.1635 24.8229 15.2775C25.0626 14.3916 24.9424 13.447 24.4887 12.6517C24.0351 11.8564 23.2851 11.2754 22.4038 11.0366C21.5226 10.7979 20.5822 10.9208 19.7895 11.3785C18.9968 11.8361 18.4169 12.5909 18.1772 13.4769C17.9374 14.3629 18.0576 15.3074 18.5113 16.1028Z" stroke="black" stroke-opacity="0.7" stroke-width="1.5" stroke-linecap="round" stroke-linejoin="round"/>
</svg>
