<svg width="131" height="131" viewBox="0 0 131 131" fill="none" xmlns="http://www.w3.org/2000/svg">
<rect x="0.5" y="0.5" width="130" height="130" rx="65" fill="#7756EC"/>
<path d="M65.5 32.5C57.2155 32.5 50.5 39.4396 50.5 48C50.5 56.5606 57.2155 63.5 65.5 63.5C73.7845 63.5 80.5 56.5606 80.5 48C80.5 39.4396 73.7845 32.5 65.5 32.5Z" fill="white"/>
<path d="M33.5 85.5C33.5 72.2448 44.2452 61.5 57.5 61.5H73.5C86.7552 61.5 97.5 72.2448 97.5 85.5C97.5 89.9184 93.9184 93.5 89.5 93.5H41.5C37.0818 93.5 33.5 89.9184 33.5 85.5Z" fill="white" fill-opacity="0.75"/>
</svg>
