<svg width="23" height="23" viewBox="0 0 23 23" fill="none" xmlns="http://www.w3.org/2000/svg">
    <path fill-rule="evenodd" clip-rule="evenodd"
        d="M3.83341 3.875C3.32715 3.875 2.91675 4.28541 2.91675 4.79167V14.375C2.91675 14.8813 3.32714 15.2917 3.83341 15.2917H4.79175C5.34403 15.2917 5.79175 15.7394 5.79175 16.2917C5.79175 16.844 5.34403 17.2917 4.79175 17.2917H3.83341C2.22259 17.2917 0.916748 15.9859 0.916748 14.375V4.79167C0.916748 3.18084 2.22258 1.875 3.83341 1.875H19.1667C20.7776 1.875 22.0834 3.18085 22.0834 4.79167V14.375C22.0834 15.9859 20.7776 17.2917 19.1667 17.2917H18.2084C17.6561 17.2917 17.2084 16.844 17.2084 16.2917C17.2084 15.7394 17.6561 15.2917 18.2084 15.2917H19.1667C19.673 15.2917 20.0834 14.8813 20.0834 14.375V4.79167C20.0834 4.2854 19.673 3.875 19.1667 3.875H3.83341Z"
        fill="white" fill-opacity="0.3" />
    <path fill-rule="evenodd" clip-rule="evenodd"
        d="M10.8599 14.5648C11.2307 14.2557 11.7694 14.2557 12.1402 14.5648L17.8902 19.3565C18.2137 19.626 18.3336 20.0692 18.1903 20.4651C18.047 20.861 17.6711 21.1247 17.2501 21.1247H5.75005C5.32903 21.1247 4.95311 20.861 4.80978 20.4651C4.66645 20.0692 4.78643 19.626 5.10987 19.3565L10.8599 14.5648ZM8.5121 19.1247H14.488L11.5001 16.6347L8.5121 19.1247Z"
        fill="white" fill-opacity="0.3" />
</svg>