<svg width="23" height="23" viewBox="0 0 23 23" fill="none" xmlns="http://www.w3.org/2000/svg">
<path d="M16.4228 6.47082L16.0621 6.47577L15.9504 6.47654C15.6767 6.47148 15.4083 6.40094 15.1675 6.27078C15.1425 6.2583 15.1182 6.24346 15.0703 6.21529C14.7613 6.04876 14.5105 5.7913 14.3514 5.47734L14.1742 5.15614C13.8924 4.6412 13.7506 4.38223 13.548 4.19424C13.3682 4.02678 13.1546 3.89998 12.9218 3.82237C12.6592 3.73476 12.3638 3.73394 11.773 3.73422L11.282 3.73366C10.6939 3.7334 10.3989 3.73332 10.1357 3.82047C9.90316 3.89735 9.68946 4.02311 9.50887 4.18936C9.30494 4.37686 9.16128 4.63519 8.87386 5.14992L8.87248 5.15272L8.69821 5.4636C8.67091 5.51324 8.65609 5.53775 8.64201 5.56182C8.50058 5.79794 8.30531 5.99538 8.07124 6.14049C8.04819 6.15579 8.02353 6.17003 7.97497 6.19806L7.87741 6.25339C7.63465 6.38342 7.36457 6.45324 7.08975 6.45702C7.06241 6.45786 7.03497 6.45676 6.97859 6.45543L6.62035 6.449C6.0289 6.43769 5.73323 6.43301 5.46752 6.51566C5.23291 6.58903 5.01652 6.71192 4.83286 6.8761C4.62498 7.06189 4.47738 7.31852 4.18141 7.8322L4.1796 7.83425L3.936 8.25691L3.93398 8.26206C3.64004 8.77059 3.49318 9.02679 3.43698 9.29741C3.38665 9.53813 3.38795 9.78674 3.44078 10.0267C3.50108 10.2978 3.65106 10.552 3.95251 11.0596L4.13905 11.3745C4.16684 11.4232 4.18277 11.4459 4.19528 11.4696C4.34677 11.7442 4.42084 12.0552 4.40954 12.3693C4.40883 12.4255 4.4096 12.453 4.40802 12.4798C4.39842 12.7566 4.32284 13.0271 4.18762 13.2687L4.13088 13.3643L3.94668 13.6699C3.63929 14.1793 3.48581 14.4343 3.4247 14.7068C3.36962 14.9477 3.36651 15.1975 3.41558 15.4395C3.47215 15.7128 3.61882 15.9699 3.91376 16.4853L4.156 16.9065C4.44881 17.418 4.59612 17.6728 4.802 17.8579C4.98391 18.0215 5.19849 18.1442 5.43148 18.2179C5.69528 18.3008 5.98891 18.2967 6.57693 18.2881L6.9295 18.2828C6.98962 18.282 7.01962 18.2806 7.04899 18.2816C7.36345 18.2873 7.67017 18.3794 7.93584 18.5479L8.03722 18.609C8.29979 18.7752 8.51254 19.0098 8.65292 19.2879L8.82173 19.596C9.10611 20.1155 9.24947 20.3755 9.45247 20.5642C9.63229 20.7315 9.84572 20.8584 10.0788 20.9361C10.3413 21.0237 10.637 21.0234 11.2275 21.0243L11.7185 21.0248C12.3074 21.0246 12.6016 21.0252 12.8648 20.938C13.0974 20.8611 13.3111 20.7354 13.4916 20.5691C13.6963 20.3812 13.84 20.1229 14.128 19.6058L14.3019 19.2941L14.3581 19.1959C14.4999 18.9605 14.6948 18.7623 14.9288 18.6172L15.0255 18.5604L15.1227 18.5043C15.3645 18.3747 15.6349 18.3053 15.9103 18.3007L16.0026 18.3022L16.3802 18.3095C16.9724 18.3204 17.2673 18.3255 17.5326 18.2421C17.7674 18.1693 17.984 18.0469 18.1681 17.8831C18.3752 17.6978 18.5239 17.4395 18.8198 16.9258L19.067 16.4972C19.36 15.9871 19.5073 15.7317 19.5635 15.4611C19.6144 15.2194 19.6121 14.9716 19.5597 14.7318C19.5003 14.4622 19.3516 14.2102 19.0544 13.7101L18.8603 13.3837L18.806 13.2885C18.654 13.0139 18.5795 12.7027 18.5905 12.3884L18.5921 12.2779C18.6017 12.0012 18.6772 11.7306 18.8125 11.489L18.8686 11.3958L18.8696 11.3942L19.0538 11.0885C19.3608 10.5785 19.5147 10.3242 19.5766 10.0513C19.6317 9.81017 19.6339 9.55978 19.5849 9.31898C19.5292 9.04719 19.383 8.79081 19.0907 8.2819L18.8438 7.85246C18.551 7.34087 18.404 7.08492 18.1981 6.89984C18.016 6.73661 17.8013 6.61427 17.5683 6.54096C17.3052 6.45765 17.0116 6.46175 16.4248 6.47071L16.4228 6.47082Z" stroke="white" stroke-width="1.5" stroke-linecap="round" stroke-linejoin="round"/>
<path d="M8.51129 14.1049C8.96495 14.9002 9.7149 15.4812 10.5962 15.7199C11.4775 15.9587 12.4179 15.8358 13.2105 15.3781C14.0032 14.9205 14.5831 14.1656 14.8229 13.2797C15.0626 12.3937 14.9424 11.4491 14.4887 10.6538C14.0351 9.85851 13.2851 9.27756 12.4038 9.03878C11.5226 8.80001 10.5822 8.92296 9.7895 9.38061C8.99684 9.83825 8.41686 10.5931 8.17715 11.4791C7.93744 12.365 8.05763 13.3096 8.51129 14.1049Z" stroke="white" stroke-width="1.5" stroke-linecap="round" stroke-linejoin="round"/>
</svg>
