<svg width="20" height="20" viewBox="0 0 20 20" fill="none" xmlns="http://www.w3.org/2000/svg">
    <path
        d="M8.52556 1.94258V1.94438L6.62483 5.96991L2.39499 6.6176C2.08726 6.66426 1.79949 6.79855 1.56612 7.00441C1.33393 7.20861 1.16653 7.47218 1.07654 7.76274C0.986541 8.0533 0.975741 8.36185 1.04504 8.6578C1.11434 8.95376 1.26193 9.22812 1.47702 9.44852H1.47882L4.56391 12.5925L3.83403 17.0426C3.62614 18.3164 4.94279 19.4939 6.22434 18.7878L9.9997 16.7125L13.7733 18.7887C15.0512 19.4903 16.3742 18.3209 16.1654 17.0435L15.4355 12.5934L18.5188 9.45121C18.7357 9.23082 18.8851 8.95556 18.9544 8.6596C19.0243 8.36326 19.0137 8.05363 18.9238 7.76274C18.8332 7.46916 18.6635 7.20617 18.4333 7.00261C18.1997 6.7966 17.9116 6.6623 17.6035 6.6158H17.5999L13.3746 5.96991L11.4738 1.94438V1.94258C11.3424 1.66474 11.1365 1.42873 10.879 1.26071C10.6175 1.09057 10.3122 1 10.0002 1C9.68814 1 9.38283 1.09057 9.12134 1.26071C8.86418 1.42885 8.6586 1.66485 8.52736 1.94258"
        stroke="white" stroke-width="1.5" stroke-linecap="round" stroke-linejoin="round" />
</svg>