<svg width="71" height="71" viewBox="0 0 71 71" fill="none" xmlns="http://www.w3.org/2000/svg">
<path d="M35.4993 23.6667C29.0857 23.6667 23.666 29.0864 23.666 35.5C23.666 41.9137 29.0857 47.3334 35.4993 47.3334C41.913 47.3334 47.3327 41.9137 47.3327 35.5C47.3327 29.0864 41.913 23.6667 35.4993 23.6667ZM35.4993 41.4167C32.3487 41.4167 29.5827 38.6506 29.5827 35.5C29.5827 32.3494 32.3487 29.5834 35.4993 29.5834C38.65 29.5834 41.416 32.3494 41.416 35.5C41.416 38.6506 38.65 41.4167 35.4993 41.4167Z" fill="white" fill-opacity="0.86"/>
<path d="M59.166 14.7917H51.5158L43.5076 6.78348C42.9529 6.22865 42.2006 5.91685 41.416 5.91669H29.5827C28.7981 5.91685 28.0458 6.22865 27.4911 6.78348L19.4829 14.7917H11.8327C8.56964 14.7917 5.91602 17.4453 5.91602 20.7084V53.25C5.91602 56.5131 8.56964 59.1667 11.8327 59.1667H59.166C62.4291 59.1667 65.0827 56.5131 65.0827 53.25V20.7084C65.0827 17.4453 62.4291 14.7917 59.166 14.7917ZM11.8327 53.25V20.7084H20.7077C21.4946 20.7084 22.246 20.3977 22.7992 19.8416L30.8074 11.8334H40.1913L48.1995 19.8416C48.7541 20.3964 49.5065 20.7082 50.291 20.7084H59.166L59.1719 53.25H11.8327Z" fill="white" fill-opacity="0.91"/>
</svg>
