<svg width="37" height="37" viewBox="0 0 37 37" fill="none" xmlns="http://www.w3.org/2000/svg">
<circle cx="18.5" cy="18.5" r="18.5" fill="#7857D2"/>
<path d="M18.4993 14.6667C16.4217 14.6667 14.666 16.4224 14.666 18.5C14.666 20.5777 16.4217 22.3334 18.4993 22.3334C20.577 22.3334 22.3327 20.5777 22.3327 18.5C22.3327 16.4224 20.577 14.6667 18.4993 14.6667ZM18.4993 20.4167C17.4787 20.4167 16.5827 19.5206 16.5827 18.5C16.5827 17.4794 17.4787 16.5834 18.4993 16.5834C19.52 16.5834 20.416 17.4794 20.416 18.5C20.416 19.5206 19.52 20.4167 18.4993 20.4167Z" fill="white" fill-opacity="0.86"/>
<path d="M26.166 11.7917H23.6878L21.0936 9.19748C20.9139 9.01774 20.6702 8.91674 20.416 8.91669H16.5827C16.3285 8.91674 16.0848 9.01774 15.9051 9.19748L13.3109 11.7917H10.8327C9.77564 11.7917 8.91602 12.6513 8.91602 13.7084V24.25C8.91602 25.3071 9.77564 26.1667 10.8327 26.1667H26.166C27.2231 26.1667 28.0827 25.3071 28.0827 24.25V13.7084C28.0827 12.6513 27.2231 11.7917 26.166 11.7917ZM10.8327 24.25V13.7084H13.7077C13.9626 13.7084 14.206 13.6077 14.3852 13.4276L16.9794 10.8334H20.0193L22.6135 13.4276C22.7932 13.6073 23.0369 13.7083 23.291 13.7084H26.166L26.1679 24.25H10.8327Z" fill="white" fill-opacity="0.91"/>
</svg>
