<svg width="18" height="21" viewBox="0 0 18 21" fill="none" xmlns="http://www.w3.org/2000/svg">
<path d="M1.35056 17.0625C1.35056 17.4773 1.68572 17.8125 2.10056 17.8125H15.5537C15.9685 17.8125 16.3037 17.4773 16.3037 17.0625V11.6016C16.3037 7.47188 12.9568 4.125 8.82713 4.125C4.69744 4.125 1.35056 7.47188 1.35056 11.6016V17.0625ZM3.03806 11.6016C3.03806 8.40469 5.63025 5.8125 8.82713 5.8125C12.024 5.8125 14.6162 8.40469 14.6162 11.6016V16.125H6.29588V12.1172C6.29588 11.9883 6.19041 11.8828 6.0615 11.8828H5.03025C4.90134 11.8828 4.79588 11.9883 4.79588 12.1172V16.125H3.03806V11.6016ZM1.91072 5.68359L2.83884 4.75547C2.9115 4.68281 2.9115 4.56328 2.83884 4.49063L1.24744 2.89922C1.2122 2.86432 1.16461 2.84475 1.11502 2.84475C1.06542 2.84475 1.01783 2.86432 0.982594 2.89922L0.0544689 3.82734C0.0195746 3.86258 0 3.91017 0 3.95977C0 4.00936 0.0195746 4.05695 0.0544689 4.09219L1.64588 5.68359C1.71853 5.75625 1.83572 5.75625 1.91072 5.68359ZM17.6045 3.82734L16.6763 2.89922C16.6411 2.86432 16.5935 2.84475 16.5439 2.84475C16.4943 2.84475 16.4467 2.86432 16.4115 2.89922L14.8201 4.49063C14.7852 4.52587 14.7656 4.57345 14.7656 4.62305C14.7656 4.67264 14.7852 4.72023 14.8201 4.75547L15.7482 5.68359C15.8209 5.75625 15.9404 5.75625 16.0131 5.68359L17.6045 4.09219C17.6771 4.01719 17.6771 3.9 17.6045 3.82734ZM16.3271 19.3125H1.32713C0.912281 19.3125 0.577125 19.6477 0.577125 20.0625V20.625C0.577125 20.7281 0.6615 20.8125 0.764625 20.8125H16.8896C16.9928 20.8125 17.0771 20.7281 17.0771 20.625V20.0625C17.0771 19.6477 16.742 19.3125 16.3271 19.3125ZM8.17088 2.625H9.48338C9.5865 2.625 9.67088 2.54063 9.67088 2.4375V0.1875C9.67088 0.084375 9.5865 0 9.48338 0H8.17088C8.06775 0 7.98338 0.084375 7.98338 0.1875V2.4375C7.98338 2.54063 8.06775 2.625 8.17088 2.625Z" fill="white" fill-opacity="0.3"/>
</svg>
