<svg width="80" height="31" viewBox="0 0 80 31" fill="none" xmlns="http://www.w3.org/2000/svg">
<path d="M10.9915 18.5909H16.1051L18.2784 21.3651L21.1293 24.6378L25.5142 30.0455H19.7869L16.7188 26.3764L14.9034 23.7685L10.9915 18.5909ZM25.6932 14.9091C25.6932 17.7898 25.1392 20.2315 24.0312 22.2344C22.9233 24.2372 21.4233 25.7585 19.5312 26.7983C17.6477 27.8381 15.5341 28.358 13.1903 28.358C10.8381 28.358 8.72017 27.8338 6.83665 26.7855C4.95313 25.7372 3.45739 24.2159 2.34943 22.2216C1.25 20.2187 0.700284 17.7812 0.700284 14.9091C0.700284 12.0284 1.25 9.58665 2.34943 7.58381C3.45739 5.58097 4.95313 4.05966 6.83665 3.01989C8.72017 1.98011 10.8381 1.46023 13.1903 1.46023C15.5341 1.46023 17.6477 1.98011 19.5312 3.01989C21.4233 4.05966 22.9233 5.58097 24.0312 7.58381C25.1392 9.58665 25.6932 12.0284 25.6932 14.9091ZM19.2244 14.9091C19.2244 13.2045 18.9815 11.7642 18.4957 10.5881C18.0185 9.41193 17.3281 8.52131 16.4247 7.91619C15.5298 7.31108 14.4517 7.00852 13.1903 7.00852C11.9375 7.00852 10.8594 7.31108 9.95597 7.91619C9.05256 8.52131 8.35795 9.41193 7.87216 10.5881C7.39489 11.7642 7.15625 13.2045 7.15625 14.9091C7.15625 16.6136 7.39489 18.054 7.87216 19.2301C8.35795 20.4062 9.05256 21.2969 9.95597 21.902C10.8594 22.5071 11.9375 22.8097 13.1903 22.8097C14.4517 22.8097 15.5298 22.5071 16.4247 21.902C17.3281 21.2969 18.0185 20.4062 18.4957 19.2301C18.9815 18.054 19.2244 16.6136 19.2244 14.9091ZM42.092 19.5241V8.36364H48.3306V28H42.3732V24.3438H42.1687C41.734 25.5455 40.9925 26.5 39.9442 27.2074C38.9045 27.9062 37.6474 28.2557 36.1729 28.2557C34.8349 28.2557 33.6587 27.9489 32.6445 27.3352C31.6303 26.7216 30.842 25.8651 30.2795 24.7656C29.717 23.6577 29.4315 22.3622 29.4229 20.8793V8.36364H35.6744V19.652C35.6829 20.7173 35.9641 21.5568 36.5181 22.1705C37.0721 22.7841 37.8263 23.0909 38.7809 23.0909C39.4031 23.0909 39.9613 22.9545 40.4556 22.6818C40.9585 22.4006 41.3548 21.9957 41.6445 21.4673C41.9428 20.9304 42.092 20.2827 42.092 19.5241ZM52.3097 28V8.36364H58.5611V28H52.3097ZM55.4418 6.07528C54.5639 6.07528 53.8097 5.78551 53.179 5.20597C52.5483 4.6179 52.233 3.91051 52.233 3.08381C52.233 2.26562 52.5483 1.56676 53.179 0.987216C53.8097 0.399147 54.5639 0.105112 55.4418 0.105112C56.3281 0.105112 57.0824 0.399147 57.7045 0.987216C58.3352 1.56676 58.6506 2.26562 58.6506 3.08381C58.6506 3.91051 58.3352 4.6179 57.7045 5.20597C57.0824 5.78551 56.3281 6.07528 55.4418 6.07528ZM62.5913 28V24.4332L71.6935 13.3494V13.2216H62.9109V8.36364H79.1467V12.2756L70.7092 23.0142V23.142H79.4535V28H62.5913Z" fill="white"/>
</svg>
