<svg width="13" height="10" viewBox="0 0 13 10" fill="none" xmlns="http://www.w3.org/2000/svg">
    <path d="M0.904785 9.99982V7.39187C0.904785 6.64187 1.04541 5.86204 1.32666 5.05238C1.61643 4.2342 2.00848 3.46289 2.5028 2.73846C3.00564 2.00551 3.56814 1.38761 4.1903 0.884766L6.33802 2.27823C5.83518 3.03675 5.41331 3.82937 5.0724 4.65607C4.74001 5.47425 4.57808 6.37766 4.5866 7.3663V9.99982H0.904785ZM7.38632 9.99982V7.39187C7.38632 6.64187 7.52694 5.86204 7.80819 5.05238C8.09797 4.2342 8.49001 3.46289 8.98433 2.73846C9.48717 2.00551 10.0497 1.38761 10.6718 0.884766L12.8196 2.27823C12.3167 3.03675 11.8948 3.82937 11.5539 4.65607C11.2215 5.47425 11.0596 6.37766 11.0681 7.3663V9.99982H7.38632Z" fill="white" fill-opacity="0.3"/>
    </svg>
    