<svg width="21" height="17" viewBox="0 0 21 17" fill="none" xmlns="http://www.w3.org/2000/svg">
<path fill-rule="evenodd" clip-rule="evenodd" d="M12.747 1.97274C12.4784 2.11253 12.2412 2.43177 12.2412 2.92574V4.54082C12.2412 4.79132 12.149 5.03155 11.9849 5.20868C11.8209 5.38581 11.5983 5.48532 11.3662 5.48532H8.67124C5.07324 5.48532 1.91012 8.90628 1.75612 13.3482C3.48687 11.5282 5.74349 10.4836 8.18999 10.4836H11.3662C11.5983 10.4836 11.8209 10.5831 11.9849 10.7602C12.149 10.9373 12.2412 11.1776 12.2412 11.4281V13.9027C12.2412 14.3976 12.4784 14.7159 12.747 14.8566C13.0147 14.9964 13.3157 14.969 13.5572 14.7225L18.9297 9.25196C19.383 8.72966 19.32 7.95989 18.9595 7.6076L18.9472 7.59437L13.5572 2.10686C13.4531 1.99413 13.3183 1.9203 13.1725 1.89617C13.0267 1.87204 12.8776 1.89887 12.747 1.97274ZM11.9831 0.272653C12.8459 -0.178815 13.9405 -0.0985331 14.7569 0.731677L20.1425 6.21447C21.3115 7.36675 21.2485 9.37852 20.1775 10.5761L20.1477 10.6073L14.7577 16.0967C13.9414 16.926 12.8459 17.0072 11.9831 16.5548C11.1204 16.1033 10.4912 15.1305 10.4912 13.9027V12.3726H8.18999C5.53699 12.3726 3.11325 13.8979 1.62312 16.5453C1.52409 16.7216 1.37437 16.858 1.19681 16.9338C1.01924 17.0096 0.823576 17.0206 0.639663 16.9652C0.455749 16.9098 0.293685 16.7909 0.178192 16.6268C0.0626995 16.4626 0.000119854 16.2622 0 16.0561V13.6883C0 8.17807 3.89112 3.59538 8.67124 3.59538H10.4912V2.92479C10.4912 1.69695 11.1204 0.724121 11.9831 0.272653Z" fill="white"/>
</svg>
