<svg width="22" height="22" viewBox="0 0 22 22" fill="none" xmlns="http://www.w3.org/2000/svg">
  <path fill-rule="evenodd" clip-rule="evenodd" d="M12.7851 4.47274C12.5164 4.61253 12.2793 4.93177 12.2793 5.42574V7.04082C12.2793 7.29132 12.1871 7.53155 12.023 7.70868C11.8589 7.88581 11.6364 7.98532 11.4043 7.98532H8.70932C5.11133 7.98532 1.94821 11.4063 1.79421 15.8482C3.52496 14.0282 5.78158 12.9836 8.22807 12.9836H11.4043C11.6364 12.9836 11.8589 13.0831 12.023 13.2602C12.1871 13.4373 12.2793 13.6776 12.2793 13.9281V16.4027C12.2793 16.8976 12.5164 17.2159 12.7851 17.3566C13.0528 17.4964 13.3538 17.469 13.5953 17.2225L18.9678 11.752C19.4211 11.2297 19.3581 10.4599 18.9976 10.1076L18.9853 10.0944L13.5953 4.60686C13.4912 4.49413 13.3564 4.4203 13.2106 4.39617C13.0648 4.37204 12.9157 4.39887 12.7851 4.47274ZM12.0212 2.77265C12.8839 2.32118 13.9786 2.40147 14.7949 3.23168L20.1806 8.71447C21.3496 9.86675 21.2866 11.8785 20.2156 13.0761L20.1858 13.1073L14.7958 18.5967C13.9794 19.426 12.8839 19.5072 12.0212 19.0548C11.1584 18.6033 10.5293 17.6305 10.5293 16.4027V14.8726H8.22807C5.57508 14.8726 3.15133 16.3979 1.66121 19.0453C1.56218 19.2216 1.41246 19.358 1.23489 19.4338C1.05733 19.5096 0.861662 19.5206 0.677749 19.4652C0.493835 19.4098 0.331771 19.2909 0.216278 19.1268C0.100785 18.9626 0.0382058 18.7622 0.0380859 18.5561V16.1883C0.0380859 10.6781 3.9292 6.09538 8.70932 6.09538H10.5293V5.42479C10.5293 4.19695 11.1584 3.22412 12.0212 2.77265Z" fill="white"/>
  </svg>
  