<svg width="22" height="18" viewBox="0 0 22 18" fill="none" xmlns="http://www.w3.org/2000/svg">
  <path fill-rule="evenodd" clip-rule="evenodd"
    d="M12.7851 2.47274C12.5164 2.61253 12.2793 2.93177 12.2793 3.42574V5.04082C12.2793 5.29132 12.1871 5.53155 12.023 5.70868C11.8589 5.88581 11.6364 5.98532 11.4043 5.98532H8.70932C5.11133 5.98532 1.94821 9.40628 1.79421 13.8482C3.52496 12.0282 5.78158 10.9836 8.22807 10.9836H11.4043C11.6364 10.9836 11.8589 11.0831 12.023 11.2602C12.1871 11.4373 12.2793 11.6776 12.2793 11.9281V14.4027C12.2793 14.8976 12.5164 15.2159 12.7851 15.3566C13.0528 15.4964 13.3538 15.469 13.5953 15.2225L18.9678 9.75196C19.4211 9.22966 19.3581 8.45989 18.9976 8.1076L18.9853 8.09437L13.5953 2.60686C13.4912 2.49413 13.3564 2.4203 13.2106 2.39617C13.0648 2.37204 12.9157 2.39887 12.7851 2.47274ZM12.0212 0.772653C12.8839 0.321185 13.9786 0.401467 14.7949 1.23168L20.1806 6.71447C21.3496 7.86675 21.2866 9.87852 20.2156 11.0761L20.1858 11.1073L14.7958 16.5967C13.9794 17.426 12.8839 17.5072 12.0212 17.0548C11.1584 16.6033 10.5293 15.6305 10.5293 14.4027V12.8726H8.22807C5.57508 12.8726 3.15133 14.3979 1.66121 17.0453C1.56218 17.2216 1.41246 17.358 1.23489 17.4338C1.05733 17.5096 0.861662 17.5206 0.677749 17.4652C0.493835 17.4098 0.331771 17.2909 0.216278 17.1268C0.100785 16.9626 0.0382058 16.7622 0.0380859 16.5561V14.1883C0.0380859 8.67807 3.9292 4.09538 8.70932 4.09538H10.5293V3.42479C10.5293 2.19695 11.1584 1.22412 12.0212 0.772653Z"
    fill="white" />
</svg>