<svg width="18" height="17" viewBox="0 0 18 17" fill="none" xmlns="http://www.w3.org/2000/svg">
  <path fill-rule="evenodd" clip-rule="evenodd" d="M9.07813 1.66667C6.28313 1.66667 4.07058 3.83117 4.07058 6.39785V9.13975C4.07058 9.30533 4.02128 9.46708 3.92898 9.6045L2.57458 11.6206L2.5656 11.6337C2.40976 11.8564 2.42683 12.0597 2.50726 12.206C2.59085 12.3581 2.77358 12.5 3.06794 12.5H15.173C15.3851 12.5 15.5907 12.3737 15.7056 12.1693C15.8151 11.9741 15.7986 11.7964 15.6957 11.6616C15.6903 11.6545 15.685 11.6473 15.6798 11.6401L14.2407 9.62392C14.1399 9.48267 14.0857 9.31333 14.0857 9.13975V6.39785C14.0857 5.10983 13.5148 3.87867 12.6631 3.06093C11.695 2.21431 10.451 1.66667 9.07813 1.66667ZM2.40392 6.39785C2.40392 2.83549 5.4397 0 9.07813 0C10.9161 0 12.5453 0.737892 13.7763 1.82046C13.7846 1.82777 13.7928 1.83524 13.8008 1.84288C14.9741 2.96068 15.7524 4.62731 15.7524 6.39785V8.87292L17.0295 10.6622C17.5941 11.4121 17.534 12.3171 17.1588 12.9852C16.7868 13.6477 16.0612 14.1667 15.173 14.1667H3.06794C1.26613 14.1667 0.108884 12.2483 1.19512 10.6852L2.40392 8.88583V6.39785ZM5.78048 15.8333C5.78048 15.3731 6.15358 15 6.61381 15H11.6138C12.0741 15 12.4471 15.3731 12.4471 15.8333C12.4471 16.2936 12.0741 16.6667 11.6138 16.6667H6.61381C6.15358 16.6667 5.78048 16.2936 5.78048 15.8333Z" fill="white" fill-opacity="0.7"/>
  </svg>
  