<svg width="38" height="37" viewBox="0 0 38 37" fill="none" xmlns="http://www.w3.org/2000/svg">
  <circle cx="19" cy="18.5" r="18.5" fill="#7756EC"/>
  <path d="M18.9993 14.6667C16.9217 14.6667 15.166 16.4224 15.166 18.5001C15.166 20.5777 16.9217 22.3334 18.9993 22.3334C21.077 22.3334 22.8327 20.5777 22.8327 18.5001C22.8327 16.4224 21.077 14.6667 18.9993 14.6667ZM18.9993 20.4167C17.9787 20.4167 17.0827 19.5207 17.0827 18.5001C17.0827 17.4795 17.9787 16.5834 18.9993 16.5834C20.02 16.5834 20.916 17.4795 20.916 18.5001C20.916 19.5207 20.02 20.4167 18.9993 20.4167Z" fill="white"/>
  <path d="M26.666 11.7917H24.1878L21.5936 9.19754C21.4139 9.0178 21.1702 8.9168 20.916 8.91675H17.0827C16.8285 8.9168 16.5848 9.0178 16.4051 9.19754L13.8109 11.7917H11.3327C10.2756 11.7917 9.41602 12.6514 9.41602 13.7084V24.2501C9.41602 25.3071 10.2756 26.1667 11.3327 26.1667H26.666C27.7231 26.1667 28.5827 25.3071 28.5827 24.2501V13.7084C28.5827 12.6514 27.7231 11.7917 26.666 11.7917ZM11.3327 24.2501V13.7084H14.2077C14.4626 13.7084 14.706 13.6078 14.8852 13.4276L17.4794 10.8334H20.5193L23.1135 13.4276C23.2932 13.6074 23.5369 13.7084 23.791 13.7084H26.666L26.6679 24.2501H11.3327Z" fill="white"/>
  </svg>
  