<svg width="18" height="18" viewBox="0 0 18 18" fill="none" xmlns="http://www.w3.org/2000/svg">
  <path fill-rule="evenodd" clip-rule="evenodd"
    d="M8.38838 0.0207561C10.5697 -0.127618 12.7304 0.52328 14.4669 1.85186C16.2034 3.18043 17.3969 5.0958 17.8244 7.24016C18.2292 9.27098 17.9208 11.3756 16.9575 13.2008L17.9718 16.9685C18.0483 17.2525 17.9665 17.5558 17.7576 17.7628C17.5486 17.9699 17.2446 18.0489 16.9613 17.9698L13.2478 16.9334C11.4312 17.9065 9.33165 18.2282 7.30081 17.8379C5.15373 17.4253 3.23029 16.2451 1.88981 14.5177C0.549331 12.7903 -0.116489 10.6339 0.0167312 8.45144C0.149952 6.26895 1.0731 4.2096 2.61372 2.65811C4.15434 1.10663 6.20705 0.169131 8.38838 0.0207561ZM13.4721 3.15231C12.0516 2.06545 10.284 1.53297 8.49948 1.65435C6.71501 1.77573 5.03576 2.54267 3.77543 3.81189C2.5151 5.0811 1.7599 6.76578 1.65092 8.55121C1.54193 10.3366 2.08662 12.1007 3.18322 13.5138C4.27982 14.9269 5.85332 15.8924 7.60978 16.23C9.36623 16.5675 11.1855 16.254 12.7277 15.3481C12.9193 15.2355 13.1484 15.2057 13.3624 15.2654L16.0173 16.0064L15.2907 13.3073C15.2341 13.0971 15.2635 12.8731 15.3724 12.6847C16.2676 11.1361 16.5685 9.31453 16.2187 7.5603C15.869 5.80608 14.8927 4.23917 13.4721 3.15231Z"
    fill="white" fill-opacity="0.3" />
</svg>