<svg width="17" height="16" viewBox="0 0 17 16" fill="none" xmlns="http://www.w3.org/2000/svg">
  <mask id="mask0_4977_7201" style="mask-type:luminance" maskUnits="userSpaceOnUse" x="0" y="0" width="17" height="16">
  <path d="M16.7744 0H0.774414V16H16.7744V0Z" fill="white"/>
  </mask>
  <g mask="url(#mask0_4977_7201)">
  <path d="M7.90775 1.75032C7.72028 1.35175 7.42328 1.01476 7.05142 0.778717C6.67955 0.542672 6.2482 0.417328 5.80775 0.417328C5.36729 0.417328 4.93594 0.542672 4.56407 0.778717C4.19221 1.01476 3.8952 1.35175 3.70775 1.75032H1.77441C1.5092 1.75032 1.25484 1.85568 1.06731 2.04322C0.879771 2.23075 0.774414 2.48511 0.774414 2.75032C0.774414 3.01554 0.879771 3.2699 1.06731 3.45743C1.25484 3.64497 1.5092 3.75032 1.77441 3.75032H3.70441C3.89187 4.1489 4.18888 4.48589 4.56074 4.72193C4.93261 4.95798 5.36396 5.08332 5.80441 5.08332C6.24487 5.08332 6.67622 4.95798 7.04809 4.72193C7.41995 4.48589 7.71695 4.1489 7.90441 3.75032H15.7744C16.0396 3.75032 16.294 3.64497 16.4815 3.45743C16.6691 3.2699 16.7744 3.01554 16.7744 2.75032C16.7744 2.48511 16.6691 2.23075 16.4815 2.04322C16.294 1.85568 16.0396 1.75032 15.7744 1.75032H7.90775Z" fill="white" fill-opacity="0.7"/>
  <path d="M11.7444 5.6662C11.304 5.66698 10.8729 5.79268 10.501 6.02869C10.1291 6.2647 9.83195 6.60134 9.64375 6.99955H1.77441C1.5092 6.99955 1.25484 7.10488 1.06731 7.29242C0.879771 7.47995 0.774414 7.73429 0.774414 7.99955C0.774414 8.26475 0.879771 8.51909 1.06731 8.70662C1.25484 8.89415 1.5092 8.99955 1.77441 8.99955H9.64108C9.82855 9.39809 10.1255 9.73509 10.4974 9.97115C10.8693 10.2072 11.3006 10.3326 11.7411 10.3326C12.1815 10.3326 12.6129 10.2072 12.9847 9.97115C13.3566 9.73509 13.6536 9.39809 13.8411 8.99955H15.7744C16.0396 8.99955 16.294 8.89415 16.4815 8.70662C16.6691 8.51909 16.7744 8.26475 16.7744 7.99955C16.7744 7.73429 16.6691 7.47995 16.4815 7.29242C16.294 7.10488 16.0396 6.99955 15.7744 6.99955H13.8444C13.6563 6.60145 13.3591 6.26487 12.9874 6.02887C12.6157 5.79286 12.1847 5.66711 11.7444 5.6662Z" fill="white" fill-opacity="0.7"/>
  <path d="M5.80441 10.9164C5.36411 10.9173 4.93311 11.043 4.5614 11.279C4.18969 11.515 3.89253 11.8516 3.70441 12.2497H1.77441C1.5092 12.2497 1.25484 12.355 1.06731 12.5426C0.879771 12.7302 0.774414 12.9845 0.774414 13.2497C0.774414 13.5149 0.879771 13.7693 1.06731 13.9568C1.25484 14.1444 1.5092 14.2497 1.77441 14.2497H3.70441C3.89187 14.6483 4.18888 14.9852 4.56074 15.2213C4.93261 15.4574 5.36396 15.5827 5.80441 15.5827C6.24487 15.5827 6.67622 15.4574 7.04809 15.2213C7.41995 14.9852 7.71695 14.6483 7.90441 14.2497H15.7744C16.0396 14.2497 16.294 14.1444 16.4815 13.9568C16.6691 13.7693 16.7744 13.5149 16.7744 13.2497C16.7744 12.9845 16.6691 12.7302 16.4815 12.5426C16.294 12.355 16.0396 12.2497 15.7744 12.2497H7.90775C7.71941 11.8511 7.42171 11.5142 7.04935 11.2782C6.677 11.0421 6.24528 10.9166 5.80441 10.9164Z" fill="white" fill-opacity="0.7"/>
  </g>
  </svg>
  