<svg width="19" height="20" viewBox="0 0 19 20" fill="none" xmlns="http://www.w3.org/2000/svg">
  <path
    d="M18.6121 0H0.188001C0.0846006 0 0 0.084375 0 0.1875V1.6875C0 1.79062 0.0846006 1.875 0.188001 1.875H18.6121C18.7155 1.875 18.8001 1.79062 18.8001 1.6875V0.1875C18.8001 0.084375 18.7155 0 18.6121 0ZM18.6121 14.625H0.188001C0.0846006 14.625 0 14.7094 0 14.8125V16.3125C0 16.4156 0.0846006 16.5 0.188001 16.5H18.6121C18.7155 16.5 18.8001 16.4156 18.8001 16.3125V14.8125C18.8001 14.7094 18.7155 14.625 18.6121 14.625ZM18.6121 7.3125H0.188001C0.0846006 7.3125 0 7.39687 0 7.5V9C0 9.10312 0.0846006 9.1875 0.188001 9.1875H18.6121C18.7155 9.1875 18.8001 9.10312 18.8001 9V7.5C18.8001 7.39687 18.7155 7.3125 18.6121 7.3125Z"
    fill="white" fill-opacity="0.3" />
</svg>