<svg width="22" height="20" viewBox="0 0 22 20" fill="none" xmlns="http://www.w3.org/2000/svg">
  <path fill-rule="evenodd" clip-rule="evenodd" d="M2.91667 2C2.41041 2 2 2.41041 2 2.91667V12.5C2 13.0063 2.4104 13.4167 2.91667 13.4167H3.875C4.42728 13.4167 4.875 13.8644 4.875 14.4167C4.875 14.969 4.42728 15.4167 3.875 15.4167H2.91667C1.30585 15.4167 0 14.1109 0 12.5V2.91667C0 1.30584 1.30584 0 2.91667 0H18.25C19.8609 0 21.1667 1.30585 21.1667 2.91667V12.5C21.1667 14.1109 19.8609 15.4167 18.25 15.4167H17.2917C16.7394 15.4167 16.2917 14.969 16.2917 14.4167C16.2917 13.8644 16.7394 13.4167 17.2917 13.4167H18.25C18.7563 13.4167 19.1667 13.0063 19.1667 12.5V2.91667C19.1667 2.4104 18.7563 2 18.25 2H2.91667Z" fill="white" fill-opacity="0.3"/>
  <path fill-rule="evenodd" clip-rule="evenodd" d="M9.94312 12.6898C10.314 12.3807 10.8526 12.3807 11.2235 12.6898L16.9735 17.4815C17.2969 17.751 17.4169 18.1942 17.2736 18.5901C17.1302 18.986 16.7543 19.2497 16.3333 19.2497H4.8333C4.41228 19.2497 4.03636 18.986 3.89303 18.5901C3.74971 18.1942 3.86968 17.751 4.19312 17.4815L9.94312 12.6898ZM7.59535 17.2497H13.5713L10.5833 14.7597L7.59535 17.2497Z" fill="white" fill-opacity="0.3"/>
  </svg>
  