<!-- 返回按钮 -->
<svg width="30" height="30" viewBox="0 0 30 30" fill="none" xmlns="http://www.w3.org/2000/svg">
    <circle cx="15" cy="15" r="15" fill="black" fill-opacity="0.15" />
    <circle cx="15" cy="15" r="14.5" stroke="white" stroke-opacity="0.25" />
    <path fill-rule="evenodd" clip-rule="evenodd"
        d="M17.3099 9.25095C17.5855 9.56016 17.5583 10.0342 17.2491 10.3099L11.707 15.25L17.2491 20.1901C17.5583 20.4658 17.5855 20.9399 17.3099 21.2491C17.0342 21.5583 16.5601 21.5855 16.2509 21.3099L10.3719 16.0693C10.3718 16.0692 10.3717 16.0691 10.3715 16.069C10.3715 16.069 10.3715 16.069 10.3715 16.069C10.2603 15.97 10.1669 15.8477 10.1013 15.7066C10.0354 15.565 10 15.4095 10 15.25C10 15.0905 10.0354 14.9351 10.1013 14.7934C10.1669 14.6523 10.2603 14.53 10.3715 14.431C10.3715 14.431 10.3715 14.431 10.3715 14.431C10.3717 14.4309 10.3718 14.4308 10.3719 14.4307L16.2509 9.19015C16.5601 8.91453 17.0342 8.94175 17.3099 9.25095Z"
        fill="white" fill-opacity="0.7" />
</svg>