<svg width="19" height="18" viewBox="0 0 19 18" fill="none" xmlns="http://www.w3.org/2000/svg">
  <path d="M16.6934 6.3889L16.3831 6.21578L16.2873 6.16147C16.0562 6.02263 15.8619 5.83063 15.7205 5.60141C15.7053 5.5785 15.6919 5.55389 15.6649 5.50637C15.4832 5.21265 15.396 4.87011 15.4149 4.52455L15.4219 4.1639C15.4351 3.58686 15.4418 3.29665 15.3615 3.03698C15.2905 2.80594 15.1707 2.593 15.0102 2.41242C14.8293 2.20876 14.5775 2.0628 14.0731 1.77259L13.6543 1.53074C13.1524 1.24137 12.9006 1.09626 12.6331 1.0411C12.3967 0.992236 12.1523 0.994261 11.9162 1.04705C11.6497 1.10645 11.3998 1.2558 10.9008 1.5528L10.8983 1.5545L10.5963 1.73355C10.5486 1.7624 10.5238 1.77598 10.5 1.78956C10.2629 1.92109 9.99891 1.99322 9.72762 2.0017C9.7004 2.0034 9.67234 2.0034 9.61707 2.0034L9.50653 2.00255C9.23524 1.99393 8.9703 1.9206 8.73386 1.78871C8.71012 1.77598 8.68724 1.76155 8.63977 1.7327L8.33716 1.55111C7.83789 1.25071 7.58783 1.10135 7.3203 1.0411C7.08389 0.988235 6.83863 0.986499 6.60096 1.03601C6.33197 1.09202 6.07951 1.23798 5.57375 1.52989L5.5712 1.53074L5.15499 1.77089L5.15072 1.77428C4.64923 2.0628 4.39762 2.20876 4.2163 2.41157C4.05471 2.59181 3.9333 2.80415 3.86017 3.03443C3.77803 3.29495 3.78076 3.58517 3.78793 4.1656L3.79201 4.5254C3.79172 4.58056 3.79413 4.60771 3.79314 4.63402C3.78713 4.94233 3.69707 5.24361 3.53264 5.50552C3.50433 5.55304 3.49146 5.5768 3.47689 5.59886C3.33231 5.82982 3.13446 6.02306 2.89998 6.16232L2.80447 6.21578L2.49662 6.3855C1.98325 6.66808 1.72657 6.80979 1.54014 7.01176C1.37441 7.18982 1.24863 7.40105 1.17127 7.63123C1.08488 7.89174 1.08336 8.18281 1.08116 8.76663L1.08037 9.24439C1.07819 9.82397 1.07838 10.1133 1.16291 10.3722C1.23755 10.6009 1.36023 10.8109 1.52278 10.9882C1.7071 11.1885 1.95976 11.3294 2.46592 11.6111L2.76945 11.78C2.82117 11.8088 2.84746 11.8224 2.87204 11.8377C3.13767 11.9971 3.35409 12.2263 3.49781 12.5004L3.55425 12.6022C3.69646 12.8729 3.76245 13.1772 3.74522 13.4831L3.73746 13.8285C3.72422 14.4106 3.71844 14.7025 3.79871 14.963C3.86978 15.1938 3.98941 15.4068 4.15003 15.5876C4.33093 15.7912 4.58357 15.9363 5.08713 16.2274L5.50592 16.4693C6.00865 16.7586 6.25958 16.9037 6.52714 16.9589C6.76353 17.0078 7.00791 17.0057 7.24399 16.9529C7.5113 16.8935 7.76122 16.7442 8.26191 16.4455L8.56386 16.2656L8.66024 16.2096C8.89731 16.0789 9.16129 16.0059 9.43258 15.9974L9.54313 15.9966H9.65367C9.92402 16.0051 10.1889 16.0789 10.4263 16.2104L10.5043 16.2571L10.823 16.4489C11.3232 16.7493 11.5724 16.8986 11.8399 16.958C12.0762 17.0115 12.3214 17.0138 12.5592 16.9648C12.8274 16.9088 13.0815 16.762 13.5873 16.4701L14.0095 16.2266C14.511 15.9363 14.7626 15.7912 14.9439 15.5884C15.1064 15.4077 15.2266 15.1955 15.3 14.9656C15.3822 14.7067 15.3794 14.4191 15.3722 13.8471L15.3673 13.4737L15.3679 13.366C15.3735 13.0575 15.4633 12.7559 15.6276 12.4936L15.6833 12.4003C15.8279 12.1693 16.0257 11.9761 16.2602 11.8368L16.354 11.7851L16.3557 11.7842L16.6636 11.6145C17.1769 11.3311 17.4336 11.1902 17.6209 10.9882C17.7868 10.81 17.912 10.5979 17.9889 10.3688C18.0753 10.1099 18.0768 9.81973 18.0781 9.24269L18.079 8.7556C18.0812 8.17602 18.0818 7.8858 17.9973 7.62698C17.9223 7.39846 17.7993 7.18874 17.6366 7.01176C17.4531 6.81149 17.2004 6.67063 16.6951 6.38974L16.6934 6.3889Z" stroke="white" stroke-width="1.5" stroke-linecap="round" stroke-linejoin="round"/>
  <path d="M7.22146 10.5788C7.61386 11.2668 8.26254 11.7693 9.02481 11.9758C9.78708 12.1823 10.6005 12.076 11.2861 11.6801C11.9717 11.2843 12.4734 10.6314 12.6807 9.86506C12.8881 9.09872 12.7841 8.28173 12.3917 7.59381C11.9993 6.90589 11.3506 6.4034 10.5884 6.19687C9.82609 5.99033 9.01268 6.09669 8.32706 6.49253C7.64145 6.88837 7.13979 7.54127 6.93245 8.30761C6.72511 9.07394 6.82907 9.89093 7.22146 10.5788Z" stroke="white" stroke-width="1.5" stroke-linecap="round" stroke-linejoin="round"/>
  </svg>
  