<svg width="20" height="20" viewBox="0 0 20 20" fill="none" xmlns="http://www.w3.org/2000/svg">
  <path
    d="M8.56364 1.94258V1.94438L6.66291 5.96991L2.43307 6.6176C2.12534 6.66426 1.83758 6.79855 1.6042 7.00441C1.37201 7.20861 1.20462 7.47218 1.11462 7.76274C1.02463 8.0533 1.01383 8.36185 1.08312 8.6578C1.15242 8.95376 1.30002 9.22812 1.51511 9.44852H1.51691L4.60199 12.5925L3.87212 17.0426C3.66423 18.3164 4.98088 19.4939 6.26243 18.7878L10.0378 16.7125L13.8113 18.7887C15.0893 19.4903 16.4122 18.3209 16.2035 17.0435L15.4736 12.5934L18.5569 9.45121C18.7738 9.23082 18.9232 8.95556 18.9925 8.6596C19.0624 8.36326 19.0518 8.05363 18.9619 7.76274C18.8713 7.46916 18.7016 7.20617 18.4714 7.00261C18.2377 6.7966 17.9496 6.6623 17.6416 6.6158H17.638L13.4127 5.96991L11.5119 1.94438V1.94258C11.3804 1.66474 11.1745 1.42873 10.9171 1.26071C10.6556 1.09057 10.3503 1 10.0382 1C9.72622 1 9.42092 1.09057 9.15942 1.26071C8.90227 1.42885 8.69669 1.66485 8.56544 1.94258"
    stroke="white" stroke-width="1.5" stroke-linecap="round" stroke-linejoin="round" />
</svg>