<svg width="20" height="20" viewBox="0 0 20 20" fill="none" xmlns="http://www.w3.org/2000/svg">
  <path d="M2.88889 18.8542L4.58222 17.4853L4.59333 17.4763C4.94667 17.19 5.12556 17.0463 5.32444 16.9441C5.50296 16.852 5.69111 16.7854 5.88889 16.7442C6.11 16.6982 6.34 16.6982 6.80222 16.6982H16.4478C17.69 16.6982 18.3122 16.6982 18.7867 16.4534C19.2048 16.238 19.5447 15.8945 19.7578 15.4719C20 14.9913 20 14.3625 20 13.1093V4.56712C20 3.31169 20 2.68284 19.7578 2.20335C19.5444 1.78061 19.2041 1.43704 18.7856 1.22191C18.3111 0.977112 17.6889 0.977112 16.4444 0.977112H3.55556C2.31111 0.977112 1.68889 0.977112 1.21333 1.22191C0.795214 1.43723 0.455271 1.78079 0.242222 2.20335C-5.67663e-08 2.68397 0 3.31281 0 4.57049V17.4516C0 18.6487 -5.67663e-08 19.2472 0.242222 19.5538C0.346379 19.6859 0.478705 19.7926 0.629341 19.8659C0.779976 19.9392 0.945036 19.9772 1.11222 19.9771C1.50111 19.9771 1.96333 19.6021 2.88889 18.8542Z" fill="white"/>
  </svg>
  