<svg width="22" height="23" viewBox="0 0 22 23" fill="none" xmlns="http://www.w3.org/2000/svg">
  <path d="M3.88889 20.7951L5.58222 19.3542L5.59333 19.3447C5.94667 19.0433 6.12556 18.892 6.32444 18.7844C6.50296 18.6875 6.69111 18.6174 6.88889 18.574C7.11 18.5256 7.34 18.5256 7.80222 18.5256H17.4478C18.69 18.5256 19.3122 18.5256 19.7867 18.2679C20.2048 18.0412 20.5447 17.6796 20.7578 17.2348C21 16.7289 21 16.0669 21 14.7478V5.75607C21 4.43456 21 3.77262 20.7578 3.26789C20.5444 2.8229 20.2041 2.46124 19.7856 2.23479C19.3111 1.97711 18.6889 1.97711 17.4444 1.97711H4.55556C3.31111 1.97711 2.68889 1.97711 2.21333 2.23479C1.79521 2.46144 1.45527 2.82308 1.24222 3.26789C1 3.7738 1 4.43574 1 5.75962V19.3187C1 20.5788 1 21.2088 1.24222 21.5315C1.34638 21.6706 1.47871 21.7829 1.62934 21.8601C1.77998 21.9372 1.94504 21.9772 2.11222 21.9771C2.50111 21.9771 2.96333 21.5823 3.88889 20.7951Z" stroke="white" stroke-opacity="0.5" stroke-width="2" stroke-linecap="round" stroke-linejoin="round"/>
  </svg>
  