<svg width="32" height="33" viewBox="0 0 32 33" fill="none" xmlns="http://www.w3.org/2000/svg">
  <path d="M16 0.977112C7.168 0.977112 0 8.14511 0 16.9771C0 25.8091 7.168 32.9771 16 32.9771C24.832 32.9771 32 25.8091 32 16.9771C32 8.14511 24.832 0.977112 16 0.977112ZM24 16.9771C24 17.8608 23.2837 18.5771 22.4 18.5771H17.6V23.3771C17.6 24.2608 16.8837 24.9771 16 24.9771V24.9771C15.1163 24.9771 14.4 24.2608 14.4 23.3771V18.5771H9.6C8.71635 18.5771 8 17.8608 8 16.9771V16.9771C8 16.0935 8.71634 15.3771 9.6 15.3771H14.4V10.5771C14.4 9.69346 15.1163 8.97711 16 8.97711V8.97711C16.8837 8.97711 17.6 9.69346 17.6 10.5771V15.3771H22.4C23.2837 15.3771 24 16.0935 24 16.9771V16.9771Z" fill="white"/>
  </svg>
  