<svg width="21" height="23" viewBox="0 0 21 23" fill="none" xmlns="http://www.w3.org/2000/svg">
  <path d="M20 18.3054V11.5159C20 10.862 19.9994 10.5349 19.9223 10.2305C19.8539 9.96092 19.7417 9.70573 19.5898 9.47513C19.4184 9.21492 19.1802 8.99914 18.7025 8.56854L13.0025 3.42865C12.1159 2.62917 11.6727 2.22963 11.1738 2.07759C10.7342 1.94362 10.2656 1.94362 9.82597 2.07759C9.32746 2.22952 8.88476 2.62868 7.99955 3.42695L2.29766 8.56854C1.82014 8.99914 1.58192 9.21492 1.41052 9.47513C1.25863 9.70573 1.14553 9.96092 1.07715 10.2305C1 10.5349 1 10.862 1 11.5159V18.3054C1 19.4457 1 20.0158 1.18078 20.4656C1.42184 21.0653 1.88388 21.5423 2.46583 21.7907C2.90228 21.9771 3.45558 21.9771 4.56219 21.9771C5.66881 21.9771 6.22272 21.9771 6.65917 21.7907C7.24112 21.5423 7.70305 21.0654 7.9441 20.4656C8.12488 20.0159 8.125 19.4457 8.125 18.3053V17.0815C8.125 15.7297 9.18829 14.6339 10.5 14.6339C11.8117 14.6339 12.875 15.7297 12.875 17.0815V18.3053C12.875 19.4457 12.875 20.0159 13.0557 20.4656C13.2968 21.0654 13.7589 21.5423 14.3408 21.7907C14.7773 21.9771 15.3306 21.9771 16.4371 21.9771C17.5438 21.9771 18.0977 21.9771 18.5342 21.7907C19.1161 21.5423 19.5781 21.0653 19.8191 20.4656C19.9999 20.0158 20 19.4457 20 18.3054Z" stroke="white" stroke-opacity="0.5" stroke-width="2" stroke-linecap="round" stroke-linejoin="round"/>
  </svg>
  