<svg width="25" height="26" viewBox="0 0 25 26" fill="none" xmlns="http://www.w3.org/2000/svg">
  <path d="M9.83043 15.6865L2.14641 11.1068C1.79484 10.8971 1.50541 10.6078 1.3049 10.2655C1.10439 9.92331 0.999272 9.53925 0.999272 9.14887C0.999272 8.7585 1.10439 8.37443 1.3049 8.0322C1.50541 7.68997 1.79484 7.40063 2.14641 7.19095L9.82919 2.61124C10.6246 2.13699 11.548 1.88509 12.4909 1.88509C13.4338 1.88509 14.3572 2.13699 15.1526 2.61124L22.8354 7.19095C23.187 7.40063 23.4764 7.68997 23.6769 8.0322C23.8774 8.37443 23.9825 8.7585 23.9825 9.14887C23.9825 9.53925 23.8774 9.92331 23.6769 10.2655C23.4764 10.6078 23.187 10.8971 22.8354 11.1068L15.1526 15.6865C14.3572 16.1608 13.4338 16.4127 12.4909 16.4127C11.548 16.4127 10.6259 16.1608 9.83043 15.6865Z" fill="white"/>
  <path fill-rule="evenodd" clip-rule="evenodd" d="M12.4909 2.79306C11.7446 2.79306 11.0115 2.9923 10.3774 3.37038L2.69475 7.95001C2.48556 8.07481 2.30985 8.24914 2.18697 8.45888C2.06396 8.66882 1.99854 8.90623 1.99854 9.14887C1.99854 9.39151 2.06396 9.62893 2.18697 9.83887C2.30984 10.0486 2.48533 10.2228 2.69448 10.3476L10.3785 14.9273C11.0129 15.3055 11.7449 15.5047 12.4909 15.5047C13.2372 15.5047 13.9703 15.3054 14.6044 14.9274L22.2871 10.3477C22.4962 10.2229 22.672 10.0486 22.7948 9.83887C22.9178 9.62893 22.9833 9.39152 22.9833 9.14887C22.9833 8.90623 22.9178 8.66881 22.7948 8.45888C22.672 8.24914 22.4964 8.07493 22.2873 7.95013L14.6045 3.37042C13.9704 2.99235 13.2372 2.79306 12.4909 2.79306ZM9.28099 1.8521C10.2377 1.28168 11.3513 0.977112 12.4909 0.977112C13.6305 0.977112 14.7441 1.28168 15.7008 1.8521L23.3835 6.43177C23.8774 6.72631 24.2809 7.13086 24.559 7.60552C24.837 8.08005 24.9818 8.61077 24.9818 9.14887C24.9818 9.68697 24.837 10.2177 24.559 10.6922C24.2809 11.1669 23.8776 11.5713 23.3837 11.8659L15.7008 16.4456C14.7441 17.016 13.6304 17.3206 12.4909 17.3206C11.3511 17.3206 10.2387 17.0159 9.28223 16.4456L1.59834 11.866C1.10447 11.5715 0.700935 11.1669 0.422836 10.6922C0.144814 10.2177 0 9.68698 0 9.14887C0 8.61077 0.144814 8.08005 0.422836 7.60552C0.700936 7.13087 1.10421 6.72643 1.59808 6.43189L9.28099 1.8521Z" fill="white"/>
  <path d="M9.76798 18.8903L2.49822 14.5967C-1.09916 16.4127 4.02927e-05 18.9853 0.999313 20.0446L9.76614 25.2397C11.4226 26.2213 13.5596 26.2233 15.2172 25.2434C18.6909 23.1898 23.0562 20.6057 23.9826 20.0446C26.3808 17.5022 23.9826 15.3534 22.4837 14.5967L15.2139 18.8903C13.5581 19.8683 11.4238 19.8683 9.76798 18.8903Z" fill="white"/>
  </svg>
  