<svg width="26" height="26" viewBox="0 0 26 26" fill="none" xmlns="http://www.w3.org/2000/svg">
  <path fill-rule="evenodd" clip-rule="evenodd" d="M22.0345 16.4276L20.0984 15.1139L22.271 13.7151L23.3472 14.4292C23.8656 14.7491 24.2926 15.1907 24.5882 15.7129C24.8839 16.235 25.0389 16.821 25.0389 17.4166C25.0389 18.0122 24.8839 18.5982 24.5882 19.1204C24.2926 19.6425 23.8658 20.084 23.3474 20.4039L15.8066 25.0544C14.8299 25.6569 13.696 25.9771 12.5382 25.9771C11.3804 25.9771 10.2467 25.657 9.26996 25.0545L1.73052 20.404C1.21213 20.0841 0.785122 19.6425 0.489469 19.1204C0.193815 18.5982 0.0388184 18.0122 0.0388184 17.4166C0.0388184 16.821 0.193815 16.235 0.489469 15.7129C0.785122 15.1907 1.21188 14.7493 1.73027 14.4294L2.7918 13.7003L4.60728 14.8759L3.04321 16.4276C2.87159 16.5335 2.73028 16.6797 2.63239 16.8525C2.5345 17.0254 2.48319 17.2194 2.48319 17.4166C2.48319 17.6138 2.5345 17.8078 2.63239 17.9807C2.73023 18.1535 2.87144 18.2996 3.04297 18.4055L10.5824 23.056C11.1669 23.4165 11.8454 23.6081 12.5382 23.6081C13.2311 23.6081 13.9095 23.4166 14.494 23.056L22.0345 18.4057C22.206 18.2998 22.3475 18.1535 22.4453 17.9807C22.5432 17.8078 22.5945 17.6138 22.5945 17.4166C22.5945 17.2194 22.5432 17.0254 22.4453 16.8525C22.3475 16.6797 22.206 16.5335 22.0345 16.4276Z" fill="white" fill-opacity="0.5"/>
  <path fill-rule="evenodd" clip-rule="evenodd" d="M12.5388 3.44794C11.846 3.44794 11.1675 3.6477 10.583 4.02378L3.04336 8.87411C2.87183 8.98457 2.73037 9.13712 2.63252 9.31735C2.53463 9.49767 2.48331 9.70002 2.48331 9.9057C2.48331 10.1114 2.53463 10.3137 2.63252 10.4941C2.73035 10.6743 2.87154 10.8266 3.04304 10.9371L10.5841 15.7875C11.1688 16.1638 11.8463 16.3635 12.5388 16.3635C13.2317 16.3635 13.9102 16.1637 14.4947 15.7876L22.0343 10.9373C22.2059 10.8268 22.3473 10.6743 22.4452 10.4941C22.5431 10.3137 22.5944 10.1114 22.5944 9.9057C22.5944 9.70002 22.5431 9.49766 22.4452 9.31735C22.3473 9.13712 22.2061 8.98473 22.0346 8.87427L14.4948 4.02383C13.9103 3.64776 13.2317 3.44794 12.5388 3.44794ZM9.27041 1.93937C10.2472 1.31092 11.381 0.977112 12.5388 0.977112C13.6967 0.977112 14.8305 1.31092 15.8073 1.93937L23.3471 6.78981C23.8655 7.12348 24.2925 7.58408 24.5882 8.12869C24.8839 8.6733 25.0389 9.28449 25.0389 9.9057C25.0389 10.5269 24.8839 11.1381 24.5882 11.6827C24.2925 12.2273 23.8658 12.6878 23.3473 13.0214L15.8074 17.872C14.8306 18.5004 13.6967 18.8343 12.5388 18.8343C11.3807 18.8343 10.2482 18.5003 9.2717 17.8721L1.73067 13.0216C1.21226 12.688 0.785158 12.2273 0.489491 11.6827C0.193823 11.1381 0.0388184 10.5269 0.0388184 9.9057C0.0388184 9.28448 0.193823 8.6733 0.489491 8.12869C0.785159 7.58408 1.21194 7.12364 1.73035 6.78997L9.27041 1.93937Z" fill="white" fill-opacity="0.5"/>
  </svg>
  